<?xml version="1.0" encoding="UTF-8"?>
<svg id="Layer_1" xmlns="http://www.w3.org/2000/svg" version="1.1" viewBox="0 0 800 800">
  <!-- Generator: Adobe Illustrator 29.8.2, SVG Export Plug-In . SVG Version: 2.1.1 Build 3)  -->
  <defs>
    <style>
      .st0 {
        fill: #edabad;
      }
    </style>
  </defs>
  <g id="wmNpDF.tif">
    <g>
      <path class="st0" d="M144.8,248.1c-7.2.2-17,.6-19.4-7.7v-72.8c.4-3.5,3-7.2,6.7-7.6h534.1c4.6-.5,7.3,2.6,8.6,6.7v73.7c-2.4,8.3-12.2,7.9-19.4,7.7v268.1l1.5,1.5h27.7c1.6,0,6.9,5.4,6.6,7.7-2,19.6,2.9,45.6,0,64.5-1.3,8.2-11.1,8.4-17.7,7.7-.7.2-1.7,2.3-1.7,2.6v171.2l1.5,1.5h53.3l1.5-1.5v-27.7c-14.4-5.5-26.4-13.2-32.7-27.8-6.2-14.6-6.3-50.9-.3-65.7,15-37.2,70.2-37.3,85.7-.2,5.6,13.4,5.6,53.1,0,66.5-5.2,12.5-18.8,24.4-32.3,26.7v30.8h39.5c.8,0,5.2,2.3,6.1,3.1,5.5,5.2,2.3,13.8-4.5,15.8H10.5c-6.8-2-9.8-10.6-5.1-16.2.8-1,5.9-3.9,6.7-3.9h52.8v-47.7c-16.4-7.1-30.2-19-31.8-37.9-1.4-15.8-1.5-47.9,0-63.6,4.8-48.1,80.4-51.7,85.1,5.1,1.2,15.2,1.7,55.3-3,68.7-4.9,14-16.9,21.8-29.8,27.6v47.7h59.5V248.1ZM654.3,227.5c-.3-1,1-2.2,1-2.6v-44.1l-1.5-1.5H146.4l-1.5,1.5v44.1c0,.3,1.4,1.6,1,2.6h508.4ZM390.9,248.1h-224l-1.5,1.5v524.4h165v-176.3c-9.9.5-18.8,1.2-20.4-10.9-1.5-10.9-1.5-47.4,0-58.3.5-3.5,3.5-10.9,7.6-10.9h71.8l1.5-1.5V248.1ZM409.3,248.1v268.1l1.5,1.5h222.4l1.5-1.5V249.6l-1.5-1.5h-224ZM670.7,538.2h-340.3v39h340.3v-39ZM652.3,597.6h-300.4v176.3h68.7v-114.3c0-5.9,7.4-10,12.8-9.8,46,3.4,98.3-4.4,143.5,0,4.2.4,11.8,2.4,11.8,7.7v116.4h64.6v-173.8c0-.3-1.4-1.6-1-2.6ZM70.8,607.1c-12.9,1.8-18.4,13-19.3,24.8-.9,11.4-1.4,48.4,1.6,58,6.7,21.7,39.3,18.8,43.3-2.8,1.7-9.3,1.5-50.2.3-60.3-1.5-12.6-13.5-21.4-25.9-19.7ZM732,643c-7.6,1.3-16,9-18.7,16.2-2.5,6.7-2.4,32.5-1.6,40.5,3.3,32.8,49.7,30.5,52.3,0,.7-8,.9-34.2-1.4-40.7-4.4-12.5-18.2-18.1-30.7-16ZM491.3,670.4h-49.7l-1.5,1.5v102h51.3v-103.5ZM569.2,774v-102l-1.5-1.5h-49.2l-1.5,1.5v102h52.3Z"/>
      <path class="st0" d="M317.7,45.4c5.6,5.5,3.3,11-.7,16.6-2.7,3.8-15.4,15.8-16.2,18.7-2.8,9.4,4.6,24.5,0,33.8s-28.4-3.9-37.7-5.9c-8.8,1.7-30.7,16.6-37.8,7.2s1-26-.5-34.3c-1.1-5.6-16.1-16.7-18-23-6.1-20.4,22.7-15.2,32.9-22.6s11.2-18.4,16.4-23.6c15.3-15.3,23.5,14.6,31.3,23,7.5,3.7,24.8,4.6,30.4,10.1ZM245.3,74.3c1,5.2-.8,13.4,0,19,4.4-1.5,12.6-6.9,16.9-7s13,4.9,17.5,7c3.2-2.3.6-5.8.5-8.7s-.5-7.3.2-10c1-4,11-11.4,11-14.6-14.8-2.9-22.2-6.7-28.2-21-6.1,6.3-6.4,14.1-15.7,17.1-2.4.8-13.5,1.9-13.5,3.9,2.5,3.4,10.5,10.6,11.3,14.4Z"/>
      <path class="st0" d="M688.4,35.5c8.3,3.6,31.9,4.4,33.5,15.2,1.5,10.7-15.7,21.9-20.3,30.9-.2,8.9,3.4,22.6,1.2,30.8-4.6,17.4-30.1-4-38.8-3.8s-18.7,8.8-25.8,9.9c-22.1,3.5-10.4-24.7-11.8-36.9-4.5-9-26.3-23.7-17.2-34.9,4.1-5.1,26.8-8.3,33.6-11.3,4.3-5.3,12-23.4,17.3-26.2,14.9-7.8,20.9,18,28.4,26.2ZM692.2,59.4c-.5-.8-14.7-3.1-17.8-5.3-4.1-2.8-6.9-11.5-10.4-15.2-1.2,0-7.6,13.3-10.4,15.2s-17.3,4.5-17.8,5.3c.9,5.6,7.7,9.1,9.8,14.3,2.3,5.9-.4,13.3.5,19.5,1.5,1.4,12.1-4.8,14.5-5.5,6.7-1.9,15,4.4,21.3,6.5,1.2-1.7-1.2-14.1-.6-17.5,1.3-7.1,9.3-10.7,10.9-17.4Z"/>
      <path class="st0" d="M539.1,12.6c4.2,4.5,10.5,20.6,14.1,23.3,6.6,4.9,31.8,2.9,34.1,13,2.9,12.6-12.9,22.2-19,31.7l.6,33.4c-9.5,13.3-27.1-3.5-39.2-5.4-9.4,2.7-25.3,13.8-34.7,9s-.9-28.6-3-36.9-14.2-15.7-16.4-21.6c-7.9-21,23.7-16.1,32.6-23.2,3.4-2.8,9.4-16.3,12.9-20.9,5-6.4,11.6-9.1,17.9-2.4ZM559,59.4c-7.5-2.2-15.7-1.8-20.9-8.3-1.7-2.1-5.6-11.8-8.3-11.2-6.2,12.4-13.2,17.8-27.2,19.5-1.2,1.3,7.6,9.7,8.7,11.3,4.3,6.8,2.5,15.1,1.6,22.5,6.6,0,11.3-5.2,17.9-5.2,6.9,0,11.4,5.1,17.9,5.2-.5-5.5-2-12.3-.8-17.7.6-2.9,11.8-15.4,11.1-16.1Z"/>
      <path class="st0" d="M420.9,35.5c8.3,3.7,31.9,4.4,33.5,15.2,1.5,10.6-15.6,21.9-20.2,30.9-.5,8.9,2.7,18.6,1.9,27.5-2.3,23.3-30.1-.7-39.5-.5-5.6.1-18.7,8.8-25.8,9.9-4.9.8-9.9.4-12.3-4.6-3.3-6.8,1.2-24.1.6-32.3-3.3-9.9-22.6-25.4-14.2-35.9,4.4-5.5,24.6-7.2,31.5-10.3,3.3-2.3,11.2-21.2,15.2-25.3,12.6-12.9,23.9,18.3,29.5,25.3ZM424.7,59.4c-.5-.8-14.7-3.1-17.8-5.3s-9.2-15.2-10.4-15.2c-3.4,3.8-6.3,12.4-10.4,15.2s-17.3,4.5-17.8,5.3c1.5,6.2,7.7,8.7,10,15.1s-.7,12.9.3,19.7c8.5-3,13.4-8.6,22.7-5.8s11.8,6.1,13.1,4.8c.9-6.3-1.8-12.9.3-18.7s9.1-9.2,10-15.1Z"/>
      <path class="st0" d="M166.1,116.6c-7.4,8-28.5-6.1-37.2-7.8l-28.8,11.2c-7.2-1-10.8-5.7-10.8-12.8s3.1-20,1.9-25.4c-2.1-9.5-23.4-25.5-13.8-36.3,4.4-4.9,24.4-6.8,31.2-9.8,4.2-4.4,13-24.4,17-26.7,15-8.6,20,22.1,29.1,26.8,7.6,4,28.8,4.2,31.7,13.4,3.5,11.4-14.8,23.5-19.9,32.6-.4,7.5,4.5,29.5-.4,34.9ZM130.3,40.1c-.7-.4-1.9-.3-2.8,0-1.7,3.4-5.6,11.7-8.3,13.7-4.2,3.2-13.4,3.8-18.4,5.7-1.1,1.5,7.9,10.7,9.1,13,4.1,7.7.9,12.8,1.2,20.9,1.8,1.8,14-5.9,17-6.1,4.3-.3,17.4,7.6,18.9,6.1.7-8.4-3-13.6,1.6-21.5s10.2-10.1,8.7-12.3c-5-1.8-14.3-2.5-18.4-5.7-2.9-2.2-7.2-12.9-8.4-13.6Z"/>
      <path class="st0" d="M269.6,541.5c8.3-2.5,13.8,2.5,14.7,10.5,1.1,9.5,1.2,35.7,0,45-1.8,13.5-18.9,12.8-20.4.1-1.1-9.2-1.2-38,.1-47.1.4-2.9,2.8-7.7,5.8-8.6Z"/>
      <path class="st0" d="M280.9,423.7c1.8,1.6,3.1,5.9,3.4,8.4,1,8.9,1.2,37.6,0,46.1-1.8,11.8-18.5,11.8-20.4,0s-1.1-39.7,0-48,11.2-11.8,17-6.4Z"/>
      <path class="st0" d="M271.7,301.6c7-1.2,11.8,4,12.5,10.6,1,8.9,1.2,37.6,0,46.1-1.9,12-18.9,12.6-20.4-1-1-9.1-1.3-38.4,0-47.1s3.8-7.9,7.9-8.6Z"/>
      <path class="st0" d="M215.3,423.7c2,1.8,3.1,6.7,3.4,9.4,1,10,1.1,33.1-.1,42.9-1.7,14.2-18.6,14-20.3,3.1-1.2-7.7-1.2-42.5,0-50.1,1.2-7.7,11.7-10.3,17-5.4Z"/>
      <path class="st0" d="M215.2,543.7c2.1,2.1,3.1,6.4,3.4,9.4,1,10,1.1,33.1-.1,42.9-1.6,13-15.5,15-20.3,3.1,1.4-15.6-2.1-35,0-50.1s11.8-10.7,17-5.4Z"/>
      <path class="st0" d="M215.3,364.6c-5.3,4.9-15.9,2.7-17-5.4s-1.3-41.9,0-50.1,18.5-10.8,20.4,3.1c1.3,9.2,1,33.5,0,43-.3,2.7-1.4,7.6-3.4,9.4Z"/>
      <path class="st0" d="M338.4,301.6c6.9-1,10.8,3,11.5,9.5,1.1,9.6,1.2,37.7,0,47.1-1.8,12.9-19.1,12.5-20.4-4-.9-10.4-1-31.8.1-42,.7-5.9,2.5-9.8,8.9-10.7Z"/>
      <path class="st0" d="M337.3,421.5c7.4-1.5,11.8,2.3,12.6,9.5,1.1,9.6,1.2,37.7,0,47.1-1.8,13-18.8,11.7-20.4-3-1.1-9.8-1-33.2.1-42.9s2.2-9.5,7.8-10.6Z"/>
      <path class="st0" d="M267.1,724.5c-1.4-1.1-3.2-5.4-3.4-7.4-1.1-8.7-1.2-39.9,0-48.2,1.7-10.8,18.5-11,20.4,1,1.2,8,1.1,38.8,0,47-.4,2.9-2.8,7.7-5.8,8.6s-9.2.6-11.3-1.1Z"/>
      <path class="st0" d="M204,661.4c9.5-2.3,13.7,2.7,14.6,11.6s1.1,32.2,0,41.9c-1,8.5-4.8,12.3-13.7,10.8-3.9-.6-6.1-3.9-6.7-7.7-1.2-7.9-1.2-41.2,0-49.1.5-3.1,2.5-6.8,5.8-7.5Z"/>
      <path class="st0" d="M460.3,303.7c1.7,1.4,3.1,6.1,3.4,8.4,1,8.9,1.2,37.6,0,46.1-1.9,12.3-18.7,11.3-20.4,1-1.1-6.9-1.2-43.6,0-50.1s11.7-10,17.1-5.4Z"/>
      <path class="st0" d="M451.1,421.5c6.7-1.1,11.8,2.7,12.6,9.5s1.2,38.7,0,47.1c-1.9,12.1-18.9,11.4-20.5.1s-1.2-42.4,0-49.2,4.3-6.9,7.9-7.5Z"/>
      <path class="st0" d="M512.1,303.7c6.2-5.3,15.8-1.6,17.1,6.4s1.1,39.7,0,48c-1.7,12.1-18.5,12.7-20.3-1-1.2-9.2-1.2-35.7,0-45s1.7-7,3.4-8.4Z"/>
      <path class="st0" d="M512.1,484.6c-1.8-1.6-3.1-5.9-3.4-8.4-1.1-9.4-1.1-35.8,0-45,1.8-13.1,18.6-13.1,20.3-1,1.2,8.4,1.3,39.8,0,48-1.3,8.2-11.2,11.8-17,6.4Z"/>
      <path class="st0" d="M577.8,423.7c5.4-5,15.8-2.3,17,5.4,1.2,7.7,1.2,42.5,0,50.1-1.6,10-16.2,10.3-19.4,1.1,1.4-16.1-2-35.6,0-51.3.2-1.7,1.2-4.1,2.4-5.3Z"/>
      <path class="st0" d="M583.3,301.6c5.9-.9,10.8,2.5,11.5,8.5,1.1,9,1.3,40.6,0,49.2-1.6,10.2-18.2,10.6-19.4,0s-1.3-41.4,0-50.2,4.1-7,7.9-7.5Z"/>
    </g>
  </g>
</svg>