<?xml version="1.0" encoding="UTF-8"?>
<svg id="Layer_1" xmlns="http://www.w3.org/2000/svg" version="1.1" viewBox="0 0 800 800">
  <!-- Generator: Adobe Illustrator 30.0.0, SVG Export Plug-In . SVG Version: 2.1.1 Build 123)  -->
  <defs>
    <style>
      .st0 {
        fill: #edabad;
      }
    </style>
  </defs>
  <path class="st0" d="M650.4,54.3V12.4h-52.2v41.9h-97.4V12.4h-52.2v41.9h-97.4V12.4h-52.2v41.9h-97.4V12.4h-52.2v41.9H0v733.3h800V54.3h-149.6ZM747.8,735.4H52.2v-460.8h695.7v460.8h0ZM747.8,222.5H52.2v-116h97.4v41.9h52.2v-41.9h97.4v41.9h52.2v-41.9h97.4v41.9h52.2v-41.9h97.4v41.9h52.2v-41.9h97.4v116h0Z"/>
  <path class="st0" d="M334.7,610.8c21,16.3,49.8,35,51,35.8l14.2,9.2,14.2-9.2c1.2-.8,30-19.5,51-35.8,47.6-36.8,102.3-86.5,102.3-144.4,0-59-48-107-107-107s-42.8,6.7-60.5,18.8c-17.7-12.1-38.7-18.8-60.5-18.8-59,0-107,48-107,107,0,57.9,54.6,107.6,102.3,144.4ZM339.5,411.5c15.6,0,30.6,6.7,41,18.4l19.5,21.9,19.5-21.9c10.4-11.7,25.4-18.4,41-18.4,30.2,0,54.8,24.6,54.8,54.8,0,26.4-27.6,61.1-82,103.1-10.5,8.1-23.6,17.2-33.3,23.8-9.8-6.6-22.8-15.7-33.3-23.8-54.4-42.1-82-76.8-82-103.1,0-30.2,24.6-54.8,54.8-54.8Z"/>
</svg>