<?xml version="1.0" encoding="UTF-8"?>
<svg id="Layer_1" xmlns="http://www.w3.org/2000/svg" version="1.1" viewBox="0 0 800 800">
  <!-- Generator: Adobe Illustrator 30.0.0, SVG Export Plug-In . SVG Version: 2.1.1 Build 123)  -->
  <defs>
    <style>
      .st0 {
        fill: #edabad;
      }
    </style>
  </defs>
  <path class="st0" d="M732.4,351.6c6.6-22,9.8-45.4,9.8-70.7,0-58-21.4-111.5-60.2-150.8-39.9-40.4-96-62.6-157.8-62.6s-115.2,27.8-153.2,74.5c-37.9-46.7-93.7-74.5-153.2-74.5s-117.8,22.2-157.8,62.6C21.4,169.3,0,222.9,0,280.9c0,116.9,68.3,186.6,202.9,281.7,87.8,62.1,134.1,114.2,146.1,132.9l22,35.2,22.1-35c.2-.3,21-32.1,78.8-81,5.5,4,11.1,8.1,17,12.3,55.1,38.9,74.6,66.7,76,68.7l21.8,36.9,22.3-36.9c1.3-1.9,20.8-29.7,76-68.7,76.3-53.9,115-93.8,115-162.4s-26.7-91.9-67.6-112.9ZM371.1,639.5c-22.9-26.1-65.8-68.5-138.1-119.6-71.8-50.7-113.8-87-140.5-121.5-27.9-36.1-40.4-72.3-40.4-117.6s16-84.7,45.1-114c30.5-30.8,72.2-47.1,120.7-47.1s103.5,31.3,130.1,81.6l23.1,43.6,23.1-43.6c26.6-50.3,76.5-81.6,130.1-81.6s90.2,16.3,120.7,47.1c29.1,29.4,45.1,69.9,45.1,114s-2.6,39.2-7.9,56.6c-4-.3-8.1-.5-12.3-.5-31.3,0-60.8,12.7-83,34.5-22.2-21.9-51.7-34.5-83-34.5-74.1,0-130.1,54.8-130.1,127.5s19.1,82.1,56.8,116.7c-27.3,23.7-46.6,43.7-59.5,58.4ZM654.9,584.2c-32.2,22.7-53.9,42.4-67.9,56.9-14-14.5-35.8-34.2-67.9-56.9-72.1-50.9-92.9-77.8-92.9-119.8s32-75.4,77.9-75.4,47.6,14.5,59.9,37.8l23.1,43.6,23.1-43.6c12.3-23.3,35.3-37.8,59.9-37.8,45.9,0,77.9,31,77.9,75.4,0,42-20.8,68.8-92.9,119.8Z"/>
</svg>