<?xml version="1.0" encoding="UTF-8"?>
<svg id="Layer_1" xmlns="http://www.w3.org/2000/svg" version="1.1" viewBox="0 0 800 800">
  <!-- Generator: Adobe Illustrator 30.0.0, SVG Export Plug-In . SVG Version: 2.1.1 Build 123)  -->
  <defs>
    <style>
      .st0 {
        fill: #edabad;
      }
    </style>
  </defs>
  <path class="st0" d="M800,663.3v-52.2h-57.3v-229.8h-103.8v-207.6h-103.8V0h-270.1v173.8h-103.8v207.6H57.3v229.8H0v52.2h373.9v84.5h-120.5v52.2h293.2v-52.2h-120.5v-84.5h373.9ZM317.1,52.2h165.7v30.3c-6.8,2.8-11.8,6.2-15.9,9-5.6,3.8-7,4.8-12.5,4.8s-6.9-.9-12.5-4.8c-8.1-5.5-20.3-13.8-42-13.8s-33.9,8.3-42,13.8c-5.6,3.8-7,4.8-12.5,4.8s-6.9-.9-12.5-4.8c-4-2.8-9.1-6.2-15.9-9v-30.3h0ZM317.1,142.5h0c7.1,3.3,16.3,5.9,28.4,5.9,21.7,0,33.9-8.3,42-13.8,5.6-3.8,7-4.8,12.5-4.8s6.9.9,12.5,4.8c8.1,5.5,20.3,13.8,42,13.8s21.3-2.6,28.4-5.9v31.3h-165.7v-31.3ZM213.3,225.9h373.4v47.3c-6.6,2.8-11.5,6.2-15.5,9-5.4,3.8-6.6,4.6-11.7,4.6s-6.2-.8-11.7-4.6c-8-5.6-20-14-41.6-14s-33.6,8.4-41.6,14c-5.4,3.8-6.6,4.6-11.6,4.6s-6.2-.8-11.6-4.6c-8-5.6-20-14-41.6-14s-33.6,8.4-41.6,14c-5.4,3.8-6.6,4.6-11.6,4.6s-6.2-.8-11.6-4.6c-8-5.6-20-14-41.6-14s-33.6,8.4-41.5,14c-5.4,3.8-6.6,4.6-11.6,4.6s-6.2-.8-11.6-4.6c-3.9-2.8-8.9-6.2-15.5-9v-47.3h0ZM586.7,333.5v47.8H213.3v-47.8c6.9,3.1,15.7,5.5,27.1,5.5,21.5,0,33.6-8.4,41.6-14,5.4-3.8,6.6-4.6,11.6-4.6s6.2.8,11.6,4.6c8,5.6,20,14,41.6,14s33.6-8.4,41.6-14c5.4-3.8,6.6-4.6,11.6-4.6s6.2.8,11.6,4.6c8,5.6,20,14,41.6,14s33.6-8.4,41.6-14c5.4-3.8,6.6-4.6,11.6-4.6s6.2.8,11.7,4.6c8,5.6,20,14,41.6,14,11.5,0,20.2-2.4,27.1-5.5ZM109.5,433.5h581.1v58.8c-6.8-3-15.5-5.3-26.7-5.3-21.5,0-33.5,8.5-41.4,14.1-5.3,3.8-6.4,4.5-11.4,4.5s-6-.8-11.4-4.5c-7.9-5.6-20-14.1-41.4-14.1s-33.5,8.5-41.4,14.1c-5.3,3.8-6.4,4.5-11.3,4.5s-6-.8-11.4-4.5c-7.9-5.6-20-14.1-41.4-14.1s-33.5,8.5-41.4,14.1c-5.3,3.8-6.4,4.5-11.4,4.5s-6-.8-11.4-4.5c-7.9-5.6-20-14.1-41.4-14.1s-33.5,8.5-41.4,14.1c-5.3,3.8-6.4,4.5-11.4,4.5s-6-.8-11.4-4.5c-7.9-5.6-20-14.1-41.4-14.1s-33.5,8.5-41.4,14.1c-5.3,3.8-6.4,4.5-11.4,4.5s-6-.8-11.4-4.5c-7.9-5.6-20-14.1-41.4-14.1s-19.9,2.3-26.7,5.3v-58.8h0ZM109.4,611.1v-58.5c6.5-2.8,11.4-6.2,15.3-9,5.3-3.8,6.4-4.5,11.4-4.5s6,.8,11.4,4.5c7.9,5.6,20,14.1,41.4,14.1s33.5-8.5,41.4-14.1c5.3-3.8,6.4-4.5,11.4-4.5s6,.8,11.4,4.5c7.9,5.6,20,14.1,41.4,14.1s33.5-8.5,41.4-14.1c5.3-3.8,6.4-4.5,11.4-4.5s6,.8,11.4,4.5c7.9,5.6,20,14.1,41.4,14.1s33.5-8.5,41.4-14.1c5.3-3.8,6.4-4.5,11.4-4.5s6,.8,11.3,4.5c7.9,5.6,20,14.1,41.4,14.1s33.5-8.5,41.4-14.1c5.3-3.8,6.4-4.5,11.3-4.5s6,.8,11.4,4.5c7.9,5.6,20,14.1,41.4,14.1s33.5-8.5,41.4-14.1c5.3-3.8,6.4-4.5,11.4-4.5s6,.8,11.4,4.5c3.9,2.8,8.8,6.2,15.3,9v58.5H109.4Z"/>
</svg>