<?xml version="1.0" encoding="UTF-8"?>
<svg id="Layer_1" xmlns="http://www.w3.org/2000/svg" version="1.1" viewBox="0 0 800 800">
  <!-- Generator: Adobe Illustrator 30.0.0, SVG Export Plug-In . SVG Version: 2.1.1 Build 123)  -->
  <defs>
    <style>
      .st0 {
        fill: #edabad;
      }
    </style>
  </defs>
  <circle class="st0" cx="139.2" cy="347.3" r="31.1"/>
  <path class="st0" d="M710.2,466.5c18.5-.3,35.9-7.6,49-20.7,13.3-13.3,20.6-30.8,20.8-49.1,12.7-13,20-30.6,20-49.4s-7.3-36.3-20-49.4c-.2-18.2-7.5-35.8-20.8-49.1-13.3-13.3-30.8-20.5-49.1-20.8-9.7-9.4-21.8-15.8-35-18.6-16.3-55.2-49.4-104.8-94.4-141.4C529.8,26.8,465.7,4,400,4s-129.8,22.8-180.7,64.1c-45,36.6-78.1,86.2-94.4,141.4-13.3,2.7-25.4,9.1-35,18.6-18.2.2-35.8,7.5-49.1,20.8-13.3,13.3-20.6,30.8-20.8,49.1-12.7,13-20,30.6-20,49.4s7.3,36.3,20,49.4c.2,18.2,7.5,35.8,20.8,49.1,13.1,13.1,30.5,20.5,49,20.7,6.7,6.6,14.7,11.7,23.3,15.1v191.1l-86.5,86.5,36.9,36.9,86.5-86.5h499.9l86.5,86.5,36.9-36.9-86.5-86.5v-191.1c8.7-3.4,16.6-8.5,23.3-15.1ZM155.1,425.4c-3.4,5.6-9.4,8.9-15.9,8.9s-12.5-3.3-15.9-8.9l-9.9-16-18.3,4.3c-6.4,1.5-13-.4-17.5-5-4.6-4.6-6.5-11.2-5-17.5l4.3-18.3-16-9.9c-5.6-3.4-8.9-9.4-8.9-15.9s3.3-12.5,8.9-15.9l15.9-9.9-4.3-18.3c-1.5-6.4.4-12.9,5-17.5,4.6-4.6,11.1-6.5,17.5-5l18.3,4.3,9.9-15.9c3.4-5.6,9.4-8.9,15.9-8.9s12.5,3.3,15.9,8.9l9.9,15.9,18.3-4.3c6.4-1.5,12.9.4,17.5,5,4.6,4.6,6.5,11.2,5,17.5l-4.3,18.3,15.9,9.9c5.6,3.4,8.9,9.4,8.9,15.9s-3.3,12.5-8.9,15.9l-15.9,9.9,4.3,18.3c1.5,6.4-.4,12.9-5,17.5-4.5,4.5-11.1,6.5-17.5,5l-18.3-4.3-9.9,16ZM165.3,657.4v-175.8c8.7-3.4,16.6-8.5,23.3-15.1,8.9-.1,17.5-1.9,25.6-5.2,16.6,24.9,18.2,62.8,18.3,196.1h-67.2ZM237.7,248.8c-13.3-13.3-30.8-20.5-49.1-20.8-3.7-3.6-7.7-6.7-12-9.4,13.9-42.9,40.2-81.4,75.5-110.1,34.3-27.9,76.1-45.4,119.8-50.7-4.6,35.3-17.5,73.7-36.9,109.2-16.2,29.7-43.3,68.4-84.7,99.1-3.3-6.3-7.5-12.1-12.7-17.3ZM520.5,495.9c-4.7,34.1-5.1,81-5.2,161.4h-230.6c0-80.4-.5-127.3-5.2-161.4-4.2-30.4-12.1-51.6-27.4-71.1,4-8.8,6.2-18.4,6.3-28.2,12.7-13,20-30.6,20-49.4s-2.6-22.1-7.5-31.8c54.9-37.3,89.7-86.4,109.9-123.4,7.2-13.1,13.5-26.5,19.1-40.2,5.6,13.7,12,27.1,19.1,40.2,20.3,37,55,86.1,109.9,123.4-4.8,9.7-7.5,20.5-7.5,31.8,0,18.8,7.3,36.3,20,49.4.1,9.8,2.3,19.4,6.3,28.2-15.3,19.5-23.2,40.6-27.4,71.1ZM549.6,266.1c-41.5-30.7-68.5-69.4-84.7-99.1-19.4-35.4-32.3-73.9-36.9-109.2,43.7,5.3,85.5,22.8,119.8,50.7,35.3,28.7,61.6,67.2,75.5,110.1-4.3,2.7-8.3,5.8-12,9.4-18.2.2-35.8,7.5-49.1,20.8-5.2,5.2-9.4,11-12.7,17.3ZM634.7,657.4h-67.2c.1-133.2,1.7-171.1,18.3-196.1,8,3.3,16.7,5,25.6,5.2,6.7,6.6,14.7,11.7,23.3,15.1v175.8h0ZM686.6,409.5l-9.9,16c-3.4,5.6-9.4,8.9-15.9,8.9s-12.5-3.3-15.9-8.9l-9.9-16-18.3,4.3c-6.4,1.5-13-.4-17.5-5s-6.5-11.2-5-17.5l4.3-18.3-16-9.9c-5.6-3.4-8.9-9.4-8.9-15.9s3.3-12.5,8.9-15.9l15.9-9.9-4.3-18.3c-1.5-6.4.4-12.9,5-17.5s11.1-6.5,17.5-5l18.3,4.3,9.9-15.9c3.4-5.6,9.4-8.9,15.9-8.9s12.5,3.3,15.9,8.9l9.9,15.9,18.3-4.3c6.4-1.5,12.9.4,17.5,5s6.5,11.2,5,17.5l-4.3,18.3,15.9,9.9c5.6,3.4,8.9,9.4,8.9,15.9s-3.3,12.5-8.9,15.9l-16,9.9,4.3,18.3c1.5,6.4-.4,12.9-5,17.5-4.5,4.5-11.1,6.5-17.5,5l-18.3-4.3Z"/>
  <circle class="st0" cx="660.8" cy="347.3" r="31.1"/>
</svg>