<?xml version="1.0" encoding="UTF-8"?>
<svg id="Capa_1" xmlns="http://www.w3.org/2000/svg" xmlns:serif="http://www.serif.com/" version="1.1" viewBox="0 0 2267.5 1829.8">
  <!-- Generator: Adobe Illustrator 30.0.0, SVG Export Plug-In . SVG Version: 2.1.1 Build 123)  -->
  <defs>
    <style>
      .st0 {
        fill: #314056;
      }
    </style>
  </defs>
  <path class="st0" d="M2221.2,856.4c-10.1,7.1-25.1,14.1-44.7,17.5-19.6,3.7-43.5,3.6-69.3,6.3-18.2,1.8-38.3,6.5-54.7,15.9-.4-3.3-1.1-6.5-1.6-9.8,8.3-4.7,17-8.2,25.4-10.6,15.5-4.4,30.2-6,43.5-7.1,26.6-1.8,47.7-1.6,64.1-4.4,16.3-2.5,29.2-7.4,38.4-12.2,8.2-4.3,14.5-7.6,14.5-7.6,0,0-5.6,5-15.7,12h.1ZM1932.1,621.9c-3.2-9.3-5.5-16.3-5.5-16.3,0,0,16.7,26.2,30.6,66.3,4.6,13.1,8.4,28.1,11.8,43.7-4.5-4.8-8.9-9.6-13.7-14.1-3-13.2-6.2-25.6-9.3-36.4-5.3-18-10.3-32.8-13.9-43.1h0ZM1999.4,717.7c2.7-5.1,5.9-10.9,9.3-16.8,2.2,3.1,4.4,5.7,6.4,8-1.4,1.5-2.4,2.7-3.8,4.1-1.8-.9-3.7-1.9-5.4-3.2-.6,3.5-1,7.3-1.6,11-.8.9-1.9,2.1-2.6,2.9-7.5,8.5-12.1,14.4-12.1,14.4,0,0,3.8-8.6,9.8-20.4h0ZM2038.6,656.9c.3-12.1.9-19,.9-19,0,0,5.3,33.5,7.7,80.4,2.2,39.3.7,87.6-2.5,136.8-2.7-10.4-5.7-20.6-9.3-30.6,1.4-47,1.6-85.8,2.2-117.1.3-16.6.7-35.3,1-50.5h0ZM1353.7,1311.8c9.8,38.5,9.9,80.5,5.4,114-4.2,33.9-8.2,57.9-8.2,81.3-.3,23.5,1.7,45.5,5.2,65.5,6.9,40.3,19.5,71.2,31.4,91.7,12,20.4,21.8,31,21.8,31,0,0-3.5-2.6-9.4-7.9-5.9-5.3-14.2-13.5-22.9-25-17.5-22.8-36.1-60.3-44.7-107.6-4.4-23.5-6.2-49.2-4.5-75.8,1.6-26.7,7.6-56.8,8.9-90,2.6-59.8-15.7-121.2-49.3-167.2,2.2-6.8,4-13.8,5.9-20.8,2.9,1.7,6,3.4,9,5.1,24.9,31.5,42.1,68.2,51.3,105.7h0ZM1264.1,1424.8c-10.9,10-24.2,22.1-39.3,35.9-2.8,2.6-5.8,5.3-8.6,8-2.3-10.6-5.4-20.3-9.2-28.7,21.4-10.8,41-20.8,56.2-29.3,22.4-12.3,35.7-23.1,35.7-23.1,0,0-12.3,16.9-34.7,37.3h0ZM1150,1559.8c-23.4,44.2-49,75.2-67.5,101.4-19.1,26-32,46.9-40,63.2-8.1,16.1-12,25.9-12,25.9,0,0,2-12.8,9-33.3,6.8-20.6,20.6-47.4,40.5-78.2,19.4-30.9,45.5-66.1,64.2-109.5,9.1-21.6,15.8-45.2,17.6-69.1.6-7.8.4-15.7-.2-23.4,3.4-3.8,7-7.5,10.3-11.3,1.3-1.5,2.5-3.1,3.8-4.7,1,4.9,1.9,9.9,2.4,14.9-1.1,7.8-1.8,14.8-1.9,19.6.9-.4,1.7-.9,2.6-1.2,0,9.9-.7,19.7-2.3,29-4.8,28.8-14.8,54.5-26.4,76.8h0ZM1030.9,1545.3c9.8-5.8,19.2-11.9,28.5-18.3,10.8,0,20.9-.7,29.6-1.9,18-2.3,30-6.5,30-6.5,0,0-12.7,8.8-32.7,15.9-15.4,5.5-34.9,10-55.4,10.8ZM905.9,1493c-151.6,46.7-334.5-36.5-449.8-170.4-57.3-67-95.6-150.6-90.3-233.2,4.6-82.6,52.6-165.6,122.3-221.5,63-52.3,149.2-77,240.4-103.8,10.2,13.8,20.5,27.3,30.9,40.5,18,22.8,36.6,44,55.4,64.4-37,27.9-66.6,62.3-85.6,99.4-27,51.9-34.6,110-21,158.7,12.6,48.5,44.9,88,84.3,103.4,39.7,14.9,78.6,6.3,104.5-10.4,26.5-16.9,39.3-43.2,39.9-64.1,1-21.1-6.7-36.3-13.8-43.9-7.1-7.8-12.3-9.7-12.3-9.7,0,0,5,2.4,11.3,10.5,6.2,7.9,12.2,23.1,9.7,42.6-2.1,19.2-15.7,41.9-40.4,55.1-24.2,13.3-59.8,17.6-91.6,2.7-31.7-15.1-56.9-50.2-64.8-92.6-8.7-42.3,1-90.9,26.9-134,19.9-32.6,49-62.2,84.6-84.7,16.6,16.6,33.2,32.7,49.9,47.7,46.5,42.4,93.7,78.5,139.6,109.3,65.1,43.9,127.3,77.3,183.7,103-.6,2.1-1,4.2-1.6,6.2-20.3,70.2-61.3,138.2-114.7,196.9-53.6,58-121.3,106.3-197.6,128h0ZM284.9,679.2c-36.8-35.8-71.7-65.3-101.6-91-30-25.5-54.6-47-71.3-62.4-16.8-15.4-25.6-24.9-25.6-24.9,0,0,13.7,9.3,35.4,24.1,22.2,15.1,53.6,36.2,88.6,62.5,63.8,47.9,136.9,113.9,190.7,199.1-4.8,4.2-9.7,8.4-14.4,12.8-32.4-49.5-68.2-87.2-101.7-120.2h-.1ZM456,555.2c.6-26.7,1.3-48.4,2.1-63.6.7-15.2,1.7-23.8,1.7-23.8,0,0,5.3,42.3,8.3,101.2,2.7,48.6,1.9,108,.5,168.6-4.4,2.6-8.9,5-13.2,7.8-.1-78.8-.4-141.7.7-190.3h-.1ZM652.5,266.2c7.4-35.7,21.5-70.9,41.6-100.4,39.7-61,107.7-86.2,169.7-53.9,31,15.1,60.2,41.5,82.5,73.6,22.5,31.6,38.1,69,47.1,109.2,18.1,79.5,5.7,167.8-44.5,226.9-48.4,58.8-130.9,93.7-221,120.2-9.1-17.2-17.8-34.8-25.7-53-28.9-65.5-50.6-137.2-55.8-211.6-2.5-36.7-1.2-75.9,6.2-110.8v-.2ZM1056.6,863.7c59.1,13.1,116.6,51.6,148.1,107.1,27.3,47.5,32.6,107.2,20.7,167.3-52.2-28.6-108.8-64.5-167.4-109.7-42.6-32.6-86-70.3-128.2-113.7-11.7-11.9-23.4-24.3-35-37,49.3-19.3,106.6-26.3,161.8-14h0ZM1105.6,176.8c2.1-31.2,1.9-56.8,2.8-75,0-17.9.7-28.4.7-28.4,0,0,1.9,12.6,4.9,33.9,2.8,21.3,5.2,51.4,5.2,86.4s-2.8,75.1-9.4,116.8c-.6,3.7-1.6,7.5-2.2,11.2-2.1-17.6-5-35.1-9.3-52.1-.2-.6-.4-1.3-.6-1.9,4.1-33.9,6.3-64.6,8-91h0ZM1164.4,401.8c-3.3,11.1-6.8,22.9-6.8,22.9,0,0-.8-7.4-.6-16.2,2.5-2.1,4.9-4.3,7.4-6.8h0ZM1189.5,426.8c25.1-10.6,44.6-24.3,61.7-37.3,16.8-13.1,30.4-25,40.1-33.2,8.8-7.3,15.4-12.7,15.4-12.7,0,0-6.4,7.5-15.5,18.3-9.9,11.2-24.1,26.9-42.5,42.4-33.8,28.6-87.3,55.7-146.1,46.5.7-3.4,1.6-6.8,2.2-10.2,33.2,4.4,61.1-4.1,84.7-13.7h0ZM1106,434.8c1.9-.4,3.8-1,5.8-1.5-2.2,1.3-4.1,2.2-6.2,3.3,0-.6.3-1.2.4-1.7h0ZM2238.8,823.9c-17,8.8-39.8,16.7-56.1,14.1-4.2,7.4-8.8,15.4-8.8,15.4,0,0,.7-8.6,2.4-16.2-11-.8-26.8-2.7-43-2.2-10.1.3-20.6,1.6-30.7,4-9.8,9.9-16.3,23.5-16.3,23.5,0,0-.1-1.6-.2-3.8,10.4-11.5,20.6-28.8,28.3-55.5,3.8-13.4,5-35.3,4.4-42.6-29.1,14.8-53.7,36.9-53.7,36.9,0,0,5.7-8.6,14.9-19.6s21.9-24.9,36.9-34.2c-4.2-27.6-12-56.5-24.5-78.6-16.7,16.3-32.1,38.5-32.1,38.5,0,0,6.6-26,24.9-50.7-12.7-21.1-27.5-38.1-39.2-49.3s-19.8-17.3-19.8-17.3c0,0-2.2,15.9-5,36.6-1.5,10.5-3.5,22.6-5.7,35.2-9.5-17.8-21.2-34.3-34.5-46.1-8.9,19.7-16.3,43.5-16.3,43.5,0,0-1.3-24.4,5.9-52.1-18-14.9-37.2-24.1-51.2-29.3-14.1-5.2-23.3-6.6-23.3-6.6,0,0,4.8,13,9.8,32,5.2,18.9,9.6,43.8,12.3,67.7,9.9,6.9,18.2,10.3,18.2,10.3,0,0-4.2.3-9.6-.2-35.4-27-74.7-46.5-114.8-58.5-85.7-25.1-174.1-20.8-250.6,10.1-38.1,15.5-73.3,38.4-101,67.9-28,29.5-46.9,65-57.3,99.9-20.9,69.9-13,139.8,13,194.3,25.4,54.9,71.4,93.9,119.1,105.5,48.4,10.7,88.6-4,114.7-21.3,26.5-18.2,39.4-40.2,44.2-55.5,5.2-15.3,4.1-23.9,4.7-23.7-.6-.2-1.5,8.4-9.4,21.6-7.4,13.2-23.1,30.3-48.6,41.4-25,10.8-61.1,15.6-94.3,1.7-32.8-14.4-62.2-47.8-75.3-91.9-13.9-43.5-12.3-96.9,8.4-144.9,20.1-48.2,60.7-83.6,116.5-101,55.1-17.5,121.5-16.5,181.3,4.1,60,20.9,111.6,61.8,138.8,119.8,13.7,28.6,20.9,59.4,20.9,88.9s-7.8,58.7-21.3,87.1c-27.3,57-74,109.4-122.7,146.5-49.5,37.7-104.4,60.2-158.5,65.7-54.8,5.7-110.1-3.3-160.4-14.2-68-15-126.2-33.4-173.7-50.8,16-79.9,8.3-167.3-35.6-235.6-46.8-73.1-122.2-116.3-197.1-129-76.1-11.8-147.6,3-206.7,33.8-18.7-22.4-37.1-45.8-54.6-70.7-5.5-7.7-10.8-15.8-16.2-23.7,37.2-12.3,74.9-26.7,111.2-45.4,49.4-25.3,97.9-59.4,135.2-106.1,29.7-36.4,49.5-79.1,61.2-122.5,2.4,4.9,5.5,10,10.6,15.4,13.7,14.6,43.8,31.2,90.2,25.3,17.8-1.9,43.4-12.8,50.9-18-15.5-8.9-32.1-16.5-43.9-22.5-12.3-6.3-19.7-10.1-19.7-10.1,0,0,9.4,2.1,26.3,5.8,15.5,3.5,36.2,7.1,54.6,14.2,26.9-22.6,46.4-50.6,55.6-76.7-12.3-.8-25.8,0-36,.4-10.5.6-17.3,1-17.3,1,0,0,25.7-12.1,58-15.9,7.8-25.1,10.1-48.3,10.9-65.1s.3-27.5.3-27.5c0,0-14.2,9.3-32.8,21.4-19.3,12.9-44.9,29.7-68.9,42.5-2.9,13.4-2.8,23.4-2.8,23.4,0,0-4.7-9.4-5.9-19.2-8.5,4.2-16.2,8.1-22.6,11.2-8.3,3.7-14.3,6.4-19.4,8.7-4.9,2.3-8.9,4.8-13.1,7.3,12.5-14.6,24.7-33.9,35.4-59.8,8.2-20.4,14-54.8,14.1-66.3-23.4,9.4-44.5,22.2-60.7,31.7-16.2,9.6-26.2,16.6-26.2,16.6,0,0,9.9-11.8,25.7-27.2,15.7-15.4,36.4-35.1,60.5-48.1-3-43.9-13.2-90.4-32.1-125.2-13.1,12.5-24.9,27.3-34.2,38.7-9.4,11.4-15.5,19.5-15.5,19.5,0,0,11.8-38.7,38.4-77.2-19.7-32.9-43.4-58.4-62.2-74.4-8.8-7.9-18.4-15.8-25.9-18.2-7.5-2.7-11.4-1.4-11.4-1.4,0,0,4.3,4.6,4.5,13,.5,7.8-1.6,21.7-2.8,38-3.2,32.4-10.1,73.4-19.5,112.7,11.7,16.6,22.7,26.4,22.7,26.4,0,0-8.1-2.2-17.3-7-10.4-21.1-22.3-41.5-36.4-60.3-32.1-42.9-73.3-79.9-124.7-103.1-50.6-23.7-114.3-28.4-167.6-7.4-54.3,19.9-94.1,60.4-120.5,102.4-53.5,85.1-62.4,183.8-52.3,268.6,9.9,86.4,38.2,164.8,73,234.3,7.2,14.5,15,28.5,22.8,42.2-30.9,8.9-62.7,18.6-95,30.5-6.9,2.5-14,5.6-21,8.5,3-7.8,5.9-16.4,8.5-26.1,4.3-16.7,5.5-43.8,4.6-52.7-36.4,18.6-66.6,46.9-66.6,46.9,0,0,6.9-10.9,18.2-24.9,11.3-13.9,27-31.3,45.8-43-5.6-34-15-69.9-30.2-97.4-21.4,19.9-40.8,47.7-40.8,47.7,0,0,8.5-32.6,32-62.9-15.4-26.4-33.2-48.1-47.2-62.7-14.1-14.6-24-22.6-24-22.6,0,0-3.4,19.8-7.9,45.8-5.8,30.6-12.9,68.2-18.5,97.6,10,14.7,19.9,22.7,19.9,22.7,0,0-12.3-2.7-22.6-10.1-2,12.2-3.8,25.2-5.2,38-15.4-23.2-42.1-50.4-52.6-58.2-7.5,30-10.5,60.8-12.7,83.8-2.1,23-3,38.5-3,38.5,0,0-4-18.9-8-45.9-3.8-27-8.3-62.3-3.7-95.6-46.1-29-96.9-51.6-142.6-59.9,1,21.6,5.5,44.6,9.3,62.1s7.1,29.7,7.1,29.7c0,0-30-40.6-41.9-95.9-44.1-7.1-84.7-7.8-114.4-7.2-29.3.7-48.2,2.6-48.2,2.6,0,0,16,23,42,55.7,25.9,32.8,61.3,75.4,95.4,115.8,26.2,2,44.4-1.6,44.4-1.6,0,0-14.7,11.5-32.6,16.3,22.4,25.7,46.4,52.7,66.9,72.8,13.3,12.8,26.1,23.4,38.8,32.4,25-1.2,54.2-6.2,54.2-6.2,0,0-16.6,12-35.7,18.6,38.7,23.7,78.6,40.6,105.9,51.8-74.1,72.7-124.9,170.2-130.7,276.7-2.9,60.8,9.3,120.5,31.8,173.4,22.3,53.1,53.8,99.9,89.7,140.7,72.3,81.3,160.5,141.9,258.3,179.2,48.9,18.4,100.6,29.9,152.9,32.8,52.2,2.4,105.3-3.9,153.8-20,24.8-8,48.4-18,70.7-29.5-14.6,33.1-30.5,73.1-32.3,113.7,39.5-14.2,76.1-27.3,76.1-27.3,0,0-8.1,6.8-21.6,16.3-13.5,9.4-32.3,22.9-54.2,36.4,1.3,44.1,18,82.9,35.9,104,8.6,10.8,17.5,17.6,23.3,21.8,6.1,3.7,9.6,5.8,9.6,5.8,0,0-.4-6,.3-15.7.6-9.7,3-23,8.8-36.9,11-28.3,35.1-56.8,62.8-81.8-1.7-19.9-5.5-35.2-5.5-35.2,0,0,10.4,11.6,16.2,25.6,18.4-18.3,42.3-43,60.3-71.5,5-7.9,9.4-16.3,13.4-24.8,16.7,43.4,41.9,82.4,74.4,110.4,7.3-26.8,14.9-55.1,22.5-75.6,7.3-20.5,13.3-33.9,13.3-33.9,0,0-.8,12.8-2.5,38.2-1.6,23.5-2.7,56.3-1.8,94.6,28.5,18.8,60.3,30.5,89.5,33.4,28.9,2.9,53.8-1.6,72.5-8.9,18.8-7.1,31.4-16.8,38.8-23.8,7.5-7.1,10.5-11.7,10.5-11.7,0,0-8.4-.6-21-4.6-12.5-3.9-28.8-12.3-42.4-26-29.2-27.8-34.7-70.5-32.8-113.4-20.2-11.3-38-20.4-38-20.4,0,0,21.2.6,39.6,4.8,1-13.9,2.9-28.1,5.2-41.3,2.3-14,4.8-23.3,7.1-39.4,2.8-20.3,6.2-49.3,4.1-81.3-20.7-33.1-53.2-51.6-53.2-51.6,0,0,23.7-2.4,46.5,8.4-12.8-50.6-38.5-85.6-63.1-107.7,27.1,12.9,56.6,25.7,89.1,37.8,51,18.6,110.4,37.5,180.6,38.4,70.6,1,146.3-21.9,211.9-64.2,33.1-20.9,64-46.5,92.2-75.8,28.1-29.2,54.4-62.6,75.3-102.3,20.8-39.3,35.9-86.1,37.1-135.9.2-6.3-.4-12.6-.7-18.9,2.6,1.4,4.9,2.7,7.8,4.2,11.4,5.8,23,12.1,48.2,16.1,9.6,1.6,27.5,1.5,33.7.7-6.9-12.7-15.6-23.8-22.5-31.9-6.9-8-12.3-12.7-12.3-12.7,0,0,8,3.9,18,11.3,9.9,7.4,22.5,17.8,31.9,30.7,12.7-2.7,26.9-6.7,40.6-12.8,13.8-6.4,27.1-15.4,36.2-25.8-10.6-3.2-22.4-6.7-30.6-9.8-8.3-3-13.8-5.7-13.8-5.7,0,0,23.9,2.1,53.5,3.7,14.4-21,18.5-41.1,20.8-55.1,2.2-14.2,2.4-23.1,2.4-23.1,0,0-12.6,6.6-29,15.1l.3.2Z"/>
</svg>