<?xml version="1.0" encoding="UTF-8"?>
<svg id="Capa_1" xmlns="http://www.w3.org/2000/svg" xmlns:serif="http://www.serif.com/" version="1.1" viewBox="0 0 2267.7 586">
  <!-- Generator: Adobe Illustrator 30.0.0, SVG Export Plug-In . SVG Version: 2.1.1 Build 123)  -->
  <defs>
    <style>
      .st0 {
        fill: #314056;
      }
    </style>
  </defs>
  <path class="st0" d="M713,375.5c0,1.9-7.8,8.7-16.9,14.8-25.6,17.2-82.8,72.6-90.6,87.8-17.3,33.5,17,21.4,69-24.3,45-39.6,77.1-60.9,78.9-52.4,4.2,19.4-46.8,75.8-99.3,109.7-45.5,29.5-90.6,49-98.3,42.6-8.2-6.8-15.4-33.7-15.3-56.6.3-45.6,45.2-99.2,99.3-118.6,17.8-6.4,73.4-8.7,73.3-3.1ZM217.5,293.6c0,1.9-19.5,14.4-43.8,28.1-103.4,58.2-89.6,77.5,18.6,26,29.5-14,54.7-24.5,55.9-23.4,3.3,3.3-15.2,26.9-35.5,45.4-39.2,35.5-101.3,51.1-165.4,41.5-26-3.9-26.6-10.6-3.5-44,20-29,53.3-55.5,84.9-67.6,22.5-8.7,88.8-13.1,88.8-6ZM218.7,33.7c44.6,15.7,88.7,65.3,93,104.4l2.3,20.8-31.2-18c-17.1-9.8-45.5-26.4-62.8-36.5-30.3-17.8-48.1-23.3-48.1-14.8s19.5,22.3,74.9,59.6l54.1,36.5h-24.7c-32,0-51.9-5.7-78.4-22.6-33.7-21.4-52.4-55.8-60.2-110.4-2.8-19.9-2.2-22,7.8-26.2,12.4-5.2,48.1-1.8,73.2,7.1ZM142.9,6.2c-10,3.6-19.6,9-21.9,12.5-7.5,10.8-1.8,81,8.5,103.9,13.8,30.8,40.6,58.1,71,72.5,36.8,17.4,63.6,20.4,100.1,11.3,24.3-6.1,31.9-6.4,40.5-1.9,5.9,3.1,23.4,10,39.4,15.4l28.8,9.8-45,12.1c-24.7,6.6-59.5,18-77.1,25.1-27.7,11.2-33.5,12.2-43.1,7.4-6.1-3.1-23.2-7.8-38.3-10.6-63.2-11.5-132,20.5-177.9,83-36.9,50.2-37.1,79.4-.5,88.6,95.3,23.9,178.1-2.1,225.1-70.9,10.7-15.6,21.2-35.3,23.3-43.3,3.4-13.5,7.1-16,44.4-30,119.8-45.1,274.6-50.3,397.6-13.2,31.2,9.4,109.1,44.3,109.1,48.9s-16.9,8.3-37.7,15.4c-36,12.2-39.1,12.5-68.9,7.4-17.3-3-42.5-4.1-56.7-2.5-55.4,6.4-116.1,48.5-139.9,97.1-30.3,61.9-2.2,149.8,45,140.4,24.2-4.8,94.8-41.5,126.9-65.9,53.7-40.9,89.9-94.3,84-123.8-2.3-11.5-.9-13.7,12.5-19.3,48.1-20.2,136.4-27.1,184.5-14.5,13.8,3.6,41.6,14.9,61.5,24.9,39.9,20,46.9,21.7,50.6,12,4.2-11.3-6.4-24.1-33.7-40.6-45.4-27.5-77.5-36-140.3-37.2-52.4-1-55.6-1.6-68-13-49.2-45.4-185.4-84-307.1-87.1-70.6-1.8-106.7-9-166.8-33.3l-30.3-12.3-3.2-28.6c-7.6-68.5-55.3-120-128.9-139.2-32.5-8.5-44.4-8.5-67.6-.2Z"/>
  <path class="st0" d="M1632.9,379.4c26.6,9,72.7,50.7,85.7,77.5,8.3,17.3,9.7,26.2,7.7,52.6-1.7,23.4-4.7,34.2-11.3,40.7-8.8,8.8-9.1,8.8-59.3-16.5-39.8-20-58.3-32.7-87.7-60.3-34.2-32.1-57-64-53.3-74.7,2.1-5.9,34.7,16.5,80.1,55,52.8,44.8,73.6,54.2,73.6,33.4s-64.1-74.7-91.4-93.3c-12.1-8.2-22.2-16.6-22.3-18.5-.3-6.1,56.9-3.3,78.1,3.9ZM2154.2,305.8c13.4,6.9,34,21.5,45.7,32.4,21.2,19.8,49.3,64,44.1,69.4-1.4,1.4-23.8,3.5-49.3,4.6-55,2.4-84.5-4.2-118.7-26.7-20.4-13.4-60.2-57.6-55.9-61.9,1-.9,25.5,9.5,55,23.5,60.2,28.4,82.9,36,87.1,29,4.7-8-16-24.7-64.5-52.1-26-14.7-47.2-28.4-47.2-30.6s18-3,39.6-2c31.6,1.5,44.6,4.5,64.1,14.5ZM2118.4,25.1l14.7,3.1-2.6,25.5c-4.4,42.5-15.8,68.2-41.6,94-26.9,26.9-59.3,39.5-95.7,37.3l-21.2-1.3,51.5-34.8c52-35,76-56,70.6-61.4-4.3-4.3-23.4,4.6-83.2,39.2-49.8,28.8-54.3,30.6-55.7,21.8-2.6-16.2,13.6-50.2,35.1-73.2,23.2-24.9,46.6-38.5,80.4-46.9,28.2-7,29.6-7.1,47.6-3.3ZM2063.9,4.1c-32.5,6.7-75.3,30.2-93.7,51.3-24.2,27.7-39.9,64.1-40.2,93.1l-.3,23.8-32.1,13.4c-59.5,24.8-94,31.8-167.6,33.7-73.2,1.9-131.8,11.7-196.2,32.6-47.6,15.4-97.9,40.5-113.2,56.4-12.2,12.7-13.3,12.9-49.7,10.8-62.8-3.7-145.9,21.2-181.1,54.3-14.3,13.5-15.3,18-5.6,26.1,6.2,5.3,13,3.3,44.6-12.7,56.9-28.8,81.9-34.3,143.8-31.8,38.5,1.6,60.8,5,84.2,13l31.8,10.8,2.8,26c3.4,31.2,17.1,54.1,53.5,89.2,41.6,40.1,134.9,91.9,165.5,91.9s32.9-21.7,41.6-51.1c8.9-29.7,8.8-45.9-.2-76.7-10.2-34.7-60.4-84.8-99.4-99.2-34.7-12.8-79-16.1-111.3-8.2-24.2,5.8-26.2,5.6-54.8-6.5-16.5-7-33.3-12.6-37.9-12.7-13.2-.2-4.3-8.4,25.1-23.3,123.7-62.5,302.8-72.9,449.2-26.2,51.5,16.5,68.4,24.5,68.4,32.7,0,12.6,24.1,51.1,46.1,73.6,43.1,44.1,100.7,62.2,167.8,52.7,49.4-7,60.6-12.7,62.5-31.9,2.1-21.6-14.9-52.8-46.4-84.9-33.2-33.8-58.9-49.5-97.5-59.4-30.4-7.8-49.4-6.6-89.7,5.6-22.7,6.9-23.4,6.8-65.8-8.8-23.4-8.6-58.2-19.4-76.7-23.8l-33.8-8,24.7-7.8c13.4-4.2,32.6-11.4,42-15.6,14.7-6.6,19.9-6.9,34.2-2.1,26.4,8.9,76.9,6.8,101.8-4.2,28.1-12.5,60.7-42.8,74-69,13.4-26.4,22.8-74.9,18.7-97-2.3-12.1-6.6-18.3-16.5-23.4-17.8-9.3-47.2-12-72.8-6.7Z"/>
  <path class="st0" d="M1172.7,146.4c25.4,51.5,30.8,79.1,21.2,109.6-4.1,13.1-16.3,36-27,50.7l-19.5,26.9-2.8-52.2c-1.5-28.6-3-59.9-3.2-69.3-.3-11.7-2.6-17.1-7.4-17.1s-7,7.8-7.4,39.8c-.2,22.1-1.8,52.8-3.5,68.9l-3,29-14.1-19.9c-26.8-37.7-35.5-59.2-35-86.2.6-29.6,20.3-80.1,45.9-117.4l16.6-24.2,10.8,13c6,7.1,18.7,29,28.4,48.5ZM1106,77.5c-39.5,45.4-65.2,105.7-65.2,152.9s17.9,77.8,54.5,115.6c34.6,35.8,42.8,35.5,79.2-2.2,30.3-31.4,50-67.1,54.9-99.6,5.9-39.2-14.5-95.3-55.6-152.9-18.9-26.4-21.7-28.6-37.7-28.6s-19.9,2.9-30.1,14.7Z"/>
  <path class="st0" d="M886.6,94.7c53.2,16.4,88,60,93.2,116.7l2.5,26.8-35.5-34.6c-45.9-44.7-86.4-77-96.2-76.9-4.6,0,19.9,26.5,59.3,64,36.8,35,67.1,66.1,67.1,68.9s-10.4,4-30.8,2.1c-61.1-5.7-112.9-43.2-126.4-91.5-10.7-38.1-13.5-75.6-6.1-80.3,10.4-6.7,42.5-4.6,72.8,4.8ZM792.7,73.7c-12.2,9.4-11.5,53.7,1.6,97,16,53,50.8,84.5,114,103.2,25.1,7.5,75.8,9.9,84.9,4.1,10-6.4,16.4-53.1,11.2-81.3-9.9-53.7-36-89.7-80.9-111.7-27-13.2-35.3-15-76-16.5-35.5-1.4-47.7-.2-54.8,5.2Z"/>
  <path class="st0" d="M1457.1,89.4c7,4.8-4.6,78.2-15.8,99.9-20.2,39.1-69.5,68.6-121.5,72.7-16,1.3-29,.5-29-1.6s30.3-33.1,67.1-68.7c40.3-38.8,64-64.8,59.3-64.9-9.1-.2-55.4,37.4-100.1,81-27.7,27.1-30.8,28.9-30.8,18.8,0-21.6,13.6-64.1,26.7-83.1,15.8-23,40.8-40.6,71.2-50,23.8-7.3,64.6-9.6,72.8-4ZM1370.4,73.9c-45.5,14.4-80.9,47.7-97.5,91.5-13.2,35.1-12,99.5,2.2,109.8,16.8,12.2,76.2,5.6,121.3-13.6,22.1-9.4,56.6-41.7,67.6-63.3,21-41.1,29-109.9,14.2-123.2-10.4-9.4-79.7-10.1-107.8-1.2Z"/>
</svg>